<svg width="32" height="34" viewBox="0 0 32 34" fill="none" xmlns="http://www.w3.org/2000/svg">
<path fill-rule="evenodd" clip-rule="evenodd" d="M14.2312 33.4033C9.73208 33.4033 5.986 31.9627 3.90828 29.6379L5.09389 28.3094C6.56529 29.607 10.2573 30.7771 14.2312 30.7771C23.859 30.7771 29.1885 24.3895 29.1885 16.4609C29.1885 9.50946 24.867 2.77038 14.9418 2.77038C13.3566 2.7479 11.7826 3.03991 10.3109 3.62951C8.83919 4.21912 7.49897 5.09462 6.36773 6.20539C5.23648 7.31617 4.33666 8.64018 3.72028 10.1009C3.10391 11.5616 2.78321 13.1299 2.77673 14.7153C2.77673 20.234 6.09413 25.8184 14.9187 25.8184C19.2595 25.8184 24.0406 22.474 24.0406 16.318C24.0406 11.0774 19.9392 8.16936 16.1931 8.1655C11.7364 8.1655 9.02148 9.96903 8.38426 14.5956C7.97103 17.6002 10.8018 20.2495 13.3005 20.6048C16.3012 21.0373 18.1241 19.8556 18.6416 17.1638C19.0278 15.1942 17.8962 13.634 16.139 13.5336C15.4395 13.5369 14.7577 13.7539 14.1849 14.1554C14.2312 14.3871 14.378 14.8312 14.4166 15.0127C16.614 14.6072 16.9346 17.6195 15.3589 18.0482C14.8577 18.1943 14.3291 18.2204 13.8159 18.1245C13.3026 18.0285 12.8192 17.8132 12.4045 17.4959C11.9303 17.0527 11.5742 16.498 11.3685 15.8823C11.1628 15.2666 11.1141 14.6093 11.2266 13.97C11.524 11.9541 13.7215 10.1544 16.4789 10.6217C19.8581 11.1933 22.1212 13.7112 21.5844 17.2642C20.8892 21.8676 17.2937 23.9376 12.9491 23.3159C10.7489 23.0076 8.75437 21.8574 7.3856 20.1076C6.01683 18.3577 5.38076 16.1448 5.61139 13.9352C6.10958 8.65983 10.7246 5.30381 15.1813 5.30381C22.8125 5.30381 26.7671 10.7105 26.7671 16.318C26.7671 22.1998 22.3915 28.5372 14.9032 28.5372C4.47598 28.5372 0 21.6861 0 14.7153C0.00339608 12.7648 0.393873 10.8343 1.1488 9.03576C1.90373 7.23722 3.0081 5.60638 4.39791 4.23776C5.78772 2.86915 7.43533 1.78997 9.24526 1.06276C11.0552 0.33556 12.9915 -0.0252075 14.9418 0.00136839C26.6242 0.00136839 32 8.21184 32 16.4802C32 25.6717 25.6819 33.4033 14.2312 33.4033Z" fill="#3ECC5E"/>
</svg>
